<svg width="25" height="24" viewBox="0 0 25 24" fill="none" xmlns="http://www.w3.org/2000/svg">
<path d="M3.34314 11.2202V15.7102C3.34314 20.2002 5.14314 22.0002 9.63314 22.0002H15.0231C19.5131 22.0002 21.3131 20.2002 21.3131 15.7102V11.2202" stroke="white" stroke-width="1.2" stroke-linecap="round" stroke-linejoin="round"/>
<path d="M12.3331 12C14.1631 12 15.5131 10.51 15.3331 8.68L14.6731 2H10.0031L9.33312 8.68C9.15312 10.51 10.5031 12 12.3331 12Z" stroke="white" stroke-width="1.2" stroke-linecap="round" stroke-linejoin="round"/>
<path d="M18.6431 12C20.6631 12 22.1431 10.36 21.9431 8.35L21.6631 5.6C21.3031 3 20.3031 2 17.6831 2H14.6331L15.3331 9.01C15.5031 10.66 16.9931 12 18.6431 12Z" stroke="white" stroke-width="1.2" stroke-linecap="round" stroke-linejoin="round"/>
<path d="M5.97313 12C7.62313 12 9.11313 10.66 9.27313 9.01L9.49313 6.8L9.97313 2H6.92313C4.30313 2 3.30313 3 2.94313 5.6L2.67313 8.35C2.47313 10.36 3.95313 12 5.97313 12Z" stroke="white" stroke-width="1.2" stroke-linecap="round" stroke-linejoin="round"/>
<path d="M12.3331 17C10.6631 17 9.83313 17.83 9.83313 19.5V22H14.8331V19.5C14.8331 17.83 14.0031 17 12.3331 17Z" stroke="white" stroke-width="1.2" stroke-linecap="round" stroke-linejoin="round"/>
</svg>
