<svg width="25" height="24" viewBox="0 0 25 24" fill="none" xmlns="http://www.w3.org/2000/svg">
<path d="M18.7066 13.55C18.2866 13.96 18.0466 14.55 18.1066 15.18C18.1966 16.26 19.1866 17.05 20.2666 17.05H22.1666V18.24C22.1666 20.31 20.4766 22 18.4066 22H8.29657C8.60657 21.74 8.87656 21.42 9.08656 21.06C9.45656 20.46 9.66656 19.75 9.66656 19C9.66656 16.79 7.87656 15 5.66656 15C4.72656 15 3.85656 15.33 3.16656 15.88V11.51C3.16656 9.44001 4.85656 7.75 6.92656 7.75H18.4066C20.4766 7.75 22.1666 9.44001 22.1666 11.51V12.95H20.1466C19.5866 12.95 19.0766 13.17 18.7066 13.55Z" stroke="white" stroke-width="1.2" stroke-linecap="round" stroke-linejoin="round"/>
<path d="M3.16656 12.4098V7.83986C3.16656 6.64986 3.89656 5.58982 5.00656 5.16982L12.9466 2.16982C14.1866 1.69982 15.5166 2.61985 15.5166 3.94985V7.74983" stroke="white" stroke-width="1.2" stroke-linecap="round" stroke-linejoin="round"/>
<path d="M23.2254 13.9702V16.0302C23.2254 16.5802 22.7854 17.0302 22.2254 17.0502H20.2654C19.1854 17.0502 18.1954 16.2602 18.1054 15.1802C18.0454 14.5502 18.2854 13.9602 18.7054 13.5502C19.0754 13.1702 19.5854 12.9502 20.1454 12.9502H22.2254C22.7854 12.9702 23.2254 13.4202 23.2254 13.9702Z" stroke="white" stroke-width="1.2" stroke-linecap="round" stroke-linejoin="round"/>
<path d="M7.66656 12H14.6666" stroke="white" stroke-width="1.2" stroke-linecap="round" stroke-linejoin="round"/>
<path d="M9.66656 19C9.66656 19.75 9.45656 20.46 9.08656 21.06C8.87656 21.42 8.60657 21.74 8.29657 22C7.59657 22.63 6.67656 23 5.66656 23C4.20656 23 2.93657 22.22 2.24657 21.06C1.87657 20.46 1.66656 19.75 1.66656 19C1.66656 17.74 2.24656 16.61 3.16656 15.88C3.85656 15.33 4.72656 15 5.66656 15C7.87656 15 9.66656 16.79 9.66656 19Z" stroke="white" stroke-width="1.2" stroke-miterlimit="10" stroke-linecap="round" stroke-linejoin="round"/>
<path d="M4.10797 18.9995L5.09796 19.9895L7.22797 18.0195" stroke="white" stroke-width="1.2" stroke-linecap="round" stroke-linejoin="round"/>
</svg>
